# xmcd
#
# Track frame offsets:
#	180
#	14859
#	27764
#	46022
#	61863
#	71607
#	84740
#	100043
#	117005
#	128248
#	138564
#	154035
#	170906
#	186534
#
# Disc length: 2684 seconds
#
# Revision: 1
# Processed by: cddbd v1.4PL0 Copyright (c) Steve Scherf et al.
# Submitted via: audiograbber 1.81.02
#
DISCID=c20a7a0e
DTITLE=One Too Many - One Too Many
DYEAR=1998
DGENRE=Blues
TTITLE0=Moon Going Down
TTITLE1=My Forty Four
TTITLE2=Statesboro Blues
TTITLE3=I Feel Just Like Going On
TTITLE4=Jitterbug Rag
TTITLE5=I Wish I Was In Heaven Sitting Down
TTITLE6=Good Liquor Gonna Carry Me Down
TTITLE7=Eagle Riding Papa
TTITLE8=Banker's Blues
TTITLE9=Step It Up And Go
TTITLE10=That'll Never Happen No More
TTITLE11=By The Riverside
TTITLE12=We Gonna Have A Time
TTITLE13=Wabash Rag
EXTD=Greg Witchel - Vocal, Harmonica, Washboard, Kazoo\nSteve Friedman - Guitar
EXTD=\nSteve Austin - Bass
EXTT0=Patton
EXTT1=Witchel/Friedman/Austin
EXTT2=McTell
EXTT3=Davis
EXTT4=Fuller
EXTT5=Wilkins
EXTT6=Broonzy - Arr., Witchel/Friedman/Austin
EXTT7=T. A. Dorsey - Arr. Witchel/Friedman/Austin
EXTT8=Broonzy - Arr., Witchel/Friedman/Austin
EXTT9=Fuller
EXTT10=Blake
EXTT11=Witchel/Friedman/Austin
EXTT12=Witchel/Friedman/Austin
EXTT13=Blake
PLAYORDER=
